<svg xmlns="http://www.w3.org/2000/svg" width="1600" height="1100" viewBox="0 0 1600 1100" fill="none">
  <rect width="1600" height="1100" fill="#0A0E15"/>
  <path d="M1080 0H1600V1100H780L1080 0Z" fill="#14202D"/>
  <path d="M0 763C209 654 391 668 548 805C716 952 877 954 1032 812C1170 685 1367 672 1600 773V1100H0V763Z" fill="#101722"/>
  <g opacity=".7">
    <rect x="888" y="154" width="504" height="312" rx="18" fill="#1D2B3A" stroke="#38495A"/>
    <rect x="914" y="184" width="166" height="18" rx="9" fill="#F7C95F"/>
    <rect x="914" y="230" width="416" height="14" rx="7" fill="#6E7F92"/>
    <rect x="914" y="263" width="358" height="14" rx="7" fill="#526274"/>
    <rect x="914" y="316" width="132" height="92" rx="12" fill="#22384B"/>
    <rect x="1068" y="316" width="132" height="92" rx="12" fill="#22384B"/>
    <rect x="1222" y="316" width="132" height="92" rx="12" fill="#22384B"/>
  </g>
  <g opacity=".84">
    <rect x="1002" y="545" width="444" height="298" rx="18" fill="#F8F7F2"/>
    <rect x="1030" y="576" width="120" height="14" rx="7" fill="#9C5B20"/>
    <rect x="1030" y="626" width="342" height="13" rx="6.5" fill="#273142"/>
    <rect x="1030" y="657" width="286" height="13" rx="6.5" fill="#6C7380"/>
    <rect x="1030" y="711" width="166" height="74" rx="10" fill="#E9E4D7"/>
    <rect x="1218" y="711" width="166" height="74" rx="10" fill="#E9E4D7"/>
  </g>
  <g opacity=".64">
    <rect x="682" y="654" width="352" height="216" rx="18" fill="#172332" stroke="#344557"/>
    <path d="M730 713H870" stroke="#F7C95F" stroke-width="14" stroke-linecap="round"/>
    <path d="M730 762H976" stroke="#607084" stroke-width="12" stroke-linecap="round"/>
    <path d="M730 803H910" stroke="#607084" stroke-width="12" stroke-linecap="round"/>
  </g>
  <g opacity=".55">
    <rect x="1194" y="90" width="246" height="66" rx="16" fill="#F7C95F"/>
    <path d="M1232 123H1404" stroke="#5F390D" stroke-width="12" stroke-linecap="round"/>
  </g>
  <g opacity=".26">
    <circle cx="1330" cy="912" r="178" fill="#F7C95F"/>
    <circle cx="1387" cy="884" r="126" fill="#9C5B20"/>
  </g>
  <path d="M116 168C278 63 463 51 670 131" stroke="#F7C95F" stroke-opacity=".22" stroke-width="2"/>
  <path d="M99 221C317 142 536 167 756 295" stroke="#FFFFFF" stroke-opacity=".12" stroke-width="2"/>
  <path d="M107 930C309 819 498 819 674 930" stroke="#FFFFFF" stroke-opacity=".12" stroke-width="2"/>
</svg>
