<svg xmlns="http://www.w3.org/2000/svg" width="200" height="200" viewBox="0 0 200 200" fill="none">
  <rect x="1" y="1" width="198" height="198" rx="12" fill="#F8F7F2" stroke="#5C6472" stroke-width="2"/>

  <!-- top-left finder -->
  <rect x="18" y="18" width="30" height="30" rx="3" fill="#111827"/>
  <rect x="24" y="24" width="18" height="18" rx="2" fill="#F8F7F2"/>
  <rect x="29" y="29" width="8" height="8" rx="1" fill="#111827"/>

  <!-- top-right finder -->
  <rect x="152" y="18" width="30" height="30" rx="3" fill="#111827"/>
  <rect x="158" y="24" width="18" height="18" rx="2" fill="#F8F7F2"/>
  <rect x="163" y="29" width="8" height="8" rx="1" fill="#111827"/>

  <!-- bottom-left finder -->
  <rect x="18" y="152" width="30" height="30" rx="3" fill="#111827"/>
  <rect x="24" y="158" width="18" height="18" rx="2" fill="#F8F7F2"/>
  <rect x="29" y="163" width="8" height="8" rx="1" fill="#111827"/>

  <!-- decorative noise modules (suggests QR data) -->
  <rect x="60" y="20" width="6" height="6" fill="#111827" opacity="0.55"/>
  <rect x="72" y="20" width="6" height="6" fill="#111827" opacity="0.35"/>
  <rect x="84" y="26" width="6" height="6" fill="#111827" opacity="0.5"/>
  <rect x="96" y="20" width="6" height="6" fill="#111827" opacity="0.45"/>
  <rect x="108" y="26" width="6" height="6" fill="#111827" opacity="0.35"/>
  <rect x="120" y="20" width="6" height="6" fill="#111827" opacity="0.55"/>
  <rect x="132" y="26" width="6" height="6" fill="#111827" opacity="0.4"/>

  <rect x="20" y="60" width="6" height="6" fill="#111827" opacity="0.5"/>
  <rect x="20" y="72" width="6" height="6" fill="#111827" opacity="0.35"/>
  <rect x="26" y="84" width="6" height="6" fill="#111827" opacity="0.45"/>
  <rect x="20" y="96" width="6" height="6" fill="#111827" opacity="0.55"/>
  <rect x="26" y="108" width="6" height="6" fill="#111827" opacity="0.35"/>
  <rect x="20" y="120" width="6" height="6" fill="#111827" opacity="0.5"/>
  <rect x="26" y="132" width="6" height="6" fill="#111827" opacity="0.4"/>

  <rect x="174" y="60" width="6" height="6" fill="#111827" opacity="0.45"/>
  <rect x="174" y="72" width="6" height="6" fill="#111827" opacity="0.55"/>
  <rect x="168" y="84" width="6" height="6" fill="#111827" opacity="0.35"/>
  <rect x="174" y="96" width="6" height="6" fill="#111827" opacity="0.5"/>
  <rect x="168" y="108" width="6" height="6" fill="#111827" opacity="0.4"/>
  <rect x="174" y="120" width="6" height="6" fill="#111827" opacity="0.55"/>
  <rect x="168" y="132" width="6" height="6" fill="#111827" opacity="0.35"/>

  <rect x="60" y="174" width="6" height="6" fill="#111827" opacity="0.5"/>
  <rect x="72" y="168" width="6" height="6" fill="#111827" opacity="0.4"/>
  <rect x="84" y="174" width="6" height="6" fill="#111827" opacity="0.55"/>
  <rect x="96" y="168" width="6" height="6" fill="#111827" opacity="0.35"/>
  <rect x="108" y="174" width="6" height="6" fill="#111827" opacity="0.5"/>
  <rect x="120" y="168" width="6" height="6" fill="#111827" opacity="0.45"/>
  <rect x="132" y="174" width="6" height="6" fill="#111827" opacity="0.4"/>

  <!-- center plaque (placeholder area) -->
  <rect x="56" y="78" width="88" height="44" rx="6" fill="#F8F7F2" stroke="#9C5B20" stroke-width="1.5"/>
  <text x="100" y="96" font-family="-apple-system, BlinkMacSystemFont, 'PingFang SC', 'Helvetica Neue', sans-serif" font-size="11" font-weight="600" fill="#111827" text-anchor="middle">微信二维码</text>
  <text x="100" y="112" font-family="-apple-system, BlinkMacSystemFont, 'PingFang SC', 'Helvetica Neue', sans-serif" font-size="8" fill="#6B7280" text-anchor="middle">扫码加 szh</text>

  <!-- footer hint -->
  <text x="100" y="142" font-family="-apple-system, BlinkMacSystemFont, 'PingFang SC', 'Helvetica Neue', sans-serif" font-size="7" fill="#9AA0A9" text-anchor="middle">(等替换真图)</text>
</svg>
